<?xml version="1.0" encoding="UTF-8" standalone="no"?>
<!-- Created with Inkscape (http://www.inkscape.org/) -->

<svg
   width="9.9194527mm"
   height="17.235874mm"
   viewBox="0 0 9.9194527 17.235874"
   version="1.1"
   id="svg1"
   xml:space="preserve"
   inkscape:export-filename="superarbol.svg"
   inkscape:export-xdpi="96"
   inkscape:export-ydpi="96"
   sodipodi:docname="superarbol.svg"
   xmlns:inkscape="http://www.inkscape.org/namespaces/inkscape"
   xmlns:sodipodi="http://sodipodi.sourceforge.net/DTD/sodipodi-0.dtd"
   xmlns="http://www.w3.org/2000/svg"
   xmlns:svg="http://www.w3.org/2000/svg"><sodipodi:namedview
     id="namedview1"
     pagecolor="#ffffff"
     bordercolor="#000000"
     borderopacity="0.25"
     inkscape:showpageshadow="2"
     inkscape:pageopacity="0.0"
     inkscape:pagecheckerboard="0"
     inkscape:deskcolor="#d1d1d1"
     inkscape:document-units="mm" /><defs
     id="defs1" /><g
     inkscape:label="Capa 1"
     inkscape:groupmode="layer"
     id="layer1"
     transform="translate(-39.677793,-25.359409)"><g
       id="g38"><g
         id="g3"
         transform="matrix(0.26153847,0,0,0.21476773,18.923252,15.02569)"
         inkscape:export-filename="..\..\..\xampp\htdocs\juegoCarta\g3.png"
         inkscape:export-xdpi="96"
         inkscape:export-ydpi="96"><path
           id="rect3"
           style="opacity:1;fill:#000000;stroke-width:0.107737"
           d="M 81.106082,60.100199 C 93.165021,46.074413 105.22396,42.500286 117.2829,59.516702 V 102.11198 H 79.355591 Z"
           sodipodi:nodetypes="ccccc" /><rect
           style="opacity:1;fill:#de8787;stroke-width:0.1"
           id="rect1"
           width="26.257366"
           height="34.426327"
           x="85.190567"
           y="93.943024" /><ellipse
           style="opacity:1;fill:#f4d7d7;stroke-width:0.1"
           id="path3"
           cx="99.194504"
           cy="66.81041"
           rx="14.003929"
           ry="14.879175" /></g><ellipse
         style="opacity:1;fill:none;stroke:#000000;stroke-width:0.1"
         id="path4"
         cx="43.105843"
         cy="28.846636"
         rx="1.1669941"
         ry="1.0575883" /><ellipse
         style="fill:none;stroke:#000000;stroke-width:0.1"
         id="path4-5"
         cx="46.331989"
         cy="28.934608"
         rx="1.1669941"
         ry="1.0575883" /><path
         style="opacity:1;fill:#de8787;stroke:#000000;stroke-width:0.1"
         d="m 42.011787,28.22667 c -0.510561,-0.218813 -0.729371,-0.145875 -0.729371,-0.145875 l -0.07294,0.729372 h 0.729372 z"
         id="path5" /><path
         style="opacity:1;fill:#de8787;stroke:#000000;stroke-width:0.1"
         d="m 47.482071,28.591356 0.875247,-0.437623 v 0.583496 l -0.802309,0.291748 z"
         id="path14" /><path
         style="opacity:1;fill:#de8787;stroke:#000000;stroke-width:0.1"
         d="m 44.27284,28.518418 c 0.323548,-0.226217 0.649857,-0.419289 1.021119,-0.07294 0,0 0.06354,0.914295 -0.07294,0.656434 -0.291748,-0.551224 -0.948182,-0.191484 -0.948182,-0.07294 z"
         id="path15"
         sodipodi:nodetypes="ccscc" /><path
         style="opacity:1;fill:#de8787;stroke:#000000;stroke-width:0.1"
         d="m 47.427369,26.859097 c -0.0547,-0.164107 -2.242817,-1.312867 -2.589268,-1.221695 -0.346451,0.09117 -3.172764,1.495211 -3.172764,1.495211 l 3.190999,-0.674669 z"
         id="path22" /><path
         style="opacity:1;fill:#000000;stroke:#000000;stroke-width:0.1"
         d="m 42.431176,26.986738 c 0,0 -0.237046,0.419388 0.03647,0.364685 0.273516,-0.0547 4.576808,-0.0547 4.576808,-0.0547 l -0.03647,-0.547029 -2.169879,-0.291748 z"
         id="path23" /><path
         id="path31"
         style="opacity:1;fill:none;stroke:#000000;stroke-width:0.0913947"
         d="m 43.732126,28.803743 a 0.72273419,0.28743654 0 0 1 -0.722733,0.287437 0.72273419,0.28743654 0 0 1 -0.722735,-0.287437 0.72273419,0.28743654 0 0 1 0.722735,-0.287437 0.72273419,0.28743654 0 0 1 0.722733,0.287437 z m 0.05421,0.07989 A 0.72273419,0.28743654 0 0 1 43.0636,29.17107 0.72273419,0.28743654 0 0 1 42.340866,28.883633 0.72273419,0.28743654 0 0 1 43.0636,28.596196 a 0.72273419,0.28743654 0 0 1 0.722734,0.287437 z" /><path
         id="path31-1"
         style="fill:#1a1a1a;stroke:#000000;stroke-width:0.0592992"
         d="m 43.344206,28.815005 a 0.29003531,0.30152623 0 0 1 -0.290035,0.301527 0.29003531,0.30152623 0 0 1 -0.290036,-0.301527 0.29003531,0.30152623 0 0 1 0.290036,-0.301527 0.29003531,0.30152623 0 0 1 0.290035,0.301527 z m 0.02175,0.08381 a 0.29003531,0.30152623 0 0 1 -0.290036,0.301527 0.29003531,0.30152623 0 0 1 -0.290035,-0.301527 0.29003531,0.30152623 0 0 1 0.290035,-0.301527 0.29003531,0.30152623 0 0 1 0.290036,0.301527 z" /><path
         id="path31-7"
         style="fill:none;stroke:#000000;stroke-width:0.0913947"
         d="m 47.143136,28.816963 a 0.72273419,0.28743654 0 0 1 -0.722733,0.287437 0.72273419,0.28743654 0 0 1 -0.722735,-0.287437 0.72273419,0.28743654 0 0 1 0.722735,-0.287437 0.72273419,0.28743654 0 0 1 0.722733,0.287437 z m 0.05421,0.07989 a 0.72273419,0.28743654 0 0 1 -0.722736,0.287437 0.72273419,0.28743654 0 0 1 -0.722734,-0.287437 0.72273419,0.28743654 0 0 1 0.722734,-0.287437 0.72273419,0.28743654 0 0 1 0.722734,0.287437 z" /><path
         id="path31-1-7"
         style="fill:#1a1a1a;stroke:#000000;stroke-width:0.0592992"
         d="m 46.755216,28.828225 a 0.29003531,0.30152623 0 0 1 -0.290035,0.301527 0.29003531,0.30152623 0 0 1 -0.290036,-0.301527 0.29003531,0.30152623 0 0 1 0.290036,-0.301527 0.29003531,0.30152623 0 0 1 0.290035,0.301527 z m 0.02175,0.08381 a 0.29003531,0.30152623 0 0 1 -0.290036,0.301527 0.29003531,0.30152623 0 0 1 -0.290035,-0.301527 0.29003531,0.30152623 0 0 1 0.290035,-0.301527 0.29003531,0.30152623 0 0 1 0.290036,0.301527 z" /><ellipse
         style="opacity:1;fill:#de8787;stroke:none;stroke-width:0.1"
         id="path37"
         cx="44.728695"
         cy="29.822168"
         rx="0.16410854"
         ry="0.3555685" /><path
         style="opacity:1;fill:#de8787;stroke:none;stroke-width:0.1"
         d="m 43.525233,31.180624 c 0.255281,-0.01823 1.11229,-0.328218 1.11229,-0.328218 l 0.145875,0.145875 0.200578,-0.109405 1.002885,0.309981 c 0,0 -1.094058,0.328218 -1.185228,0.328218 -0.09117,0 -1.203462,-0.328218 -1.203462,-0.328218 z"
         id="path38" /></g></g></svg>
