<?xml version="1.0" encoding="UTF-8" standalone="no"?>
<!-- Created with Inkscape (http://www.inkscape.org/) -->

<svg
   width="8.9302845mm"
   height="17.381638mm"
   viewBox="0 0 8.9302845 17.381638"
   version="1.1"
   id="svg1"
   xml:space="preserve"
   inkscape:export-filename="superarbol.svg"
   inkscape:export-xdpi="96"
   inkscape:export-ydpi="96"
   sodipodi:docname="superarbol.svg"
   inkscape:version="1.3.2 (091e20e, 2023-11-25, custom)"
   xmlns:inkscape="http://www.inkscape.org/namespaces/inkscape"
   xmlns:sodipodi="http://sodipodi.sourceforge.net/DTD/sodipodi-0.dtd"
   xmlns="http://www.w3.org/2000/svg"
   xmlns:svg="http://www.w3.org/2000/svg"><sodipodi:namedview
     id="namedview1"
     pagecolor="#ffffff"
     bordercolor="#000000"
     borderopacity="0.25"
     inkscape:showpageshadow="2"
     inkscape:pageopacity="0.0"
     inkscape:pagecheckerboard="0"
     inkscape:deskcolor="#d1d1d1"
     inkscape:document-units="mm"
     inkscape:zoom="10.26027"
     inkscape:cx="234.64294"
     inkscape:cy="105.69897"
     inkscape:window-width="1360"
     inkscape:window-height="705"
     inkscape:window-x="-8"
     inkscape:window-y="-8"
     inkscape:window-maximized="1"
     inkscape:current-layer="layer1" /><defs
     id="defs1" /><g
     inkscape:label="Capa 1"
     inkscape:groupmode="layer"
     id="layer1"
     transform="translate(-53.12079,-25.166206)"><g
       id="g47"
       transform="matrix(1.3004048,0,0,1.2621516,-24.944791,-7.3784977)"><rect
         style="fill:#de8787;stroke-width:0.0237002"
         id="rect1-8"
         width="6.8673115"
         height="7.3936639"
         x="60.031754"
         y="32.162868" /><ellipse
         style="fill:#f4d7d7;stroke-width:0.0201858"
         id="path3-2"
         cx="63.642742"
         cy="29.017527"
         rx="2.6568666"
         ry="3.1955667" /><path
         id="path31-18"
         style="fill:none;stroke:#000000;stroke-width:0.0913947"
         d="m 62.688952,28.601582 a 0.72273419,0.28743654 0 0 1 -0.722733,0.287437 0.72273419,0.28743654 0 0 1 -0.722735,-0.287437 0.72273419,0.28743654 0 0 1 0.722735,-0.287437 0.72273419,0.28743654 0 0 1 0.722733,0.287437 z m 0.05421,0.07989 a 0.72273419,0.28743654 0 0 1 -0.722736,0.287437 0.72273419,0.28743654 0 0 1 -0.722734,-0.287437 0.72273419,0.28743654 0 0 1 0.722734,-0.287437 0.72273419,0.28743654 0 0 1 0.722734,0.287437 z" /><path
         id="path31-1-0"
         style="fill:#1a1a1a;stroke:#000000;stroke-width:0.0592992"
         d="m 62.301032,28.612844 a 0.29003531,0.30152623 0 0 1 -0.290035,0.301527 0.29003531,0.30152623 0 0 1 -0.290036,-0.301527 0.29003531,0.30152623 0 0 1 0.290036,-0.301527 0.29003531,0.30152623 0 0 1 0.290035,0.301527 z m 0.02175,0.08381 a 0.29003531,0.30152623 0 0 1 -0.290036,0.301527 0.29003531,0.30152623 0 0 1 -0.290035,-0.301527 0.29003531,0.30152623 0 0 1 0.290035,-0.301527 0.29003531,0.30152623 0 0 1 0.290036,0.301527 z" /><path
         id="path31-7-2"
         style="fill:none;stroke:#000000;stroke-width:0.0913947"
         d="m 65.713154,28.589014 a 0.72273419,0.28743654 0 0 1 -0.722733,0.287437 0.72273419,0.28743654 0 0 1 -0.722735,-0.287437 0.72273419,0.28743654 0 0 1 0.722735,-0.287437 0.72273419,0.28743654 0 0 1 0.722733,0.287437 z m 0.05421,0.07989 a 0.72273419,0.28743654 0 0 1 -0.722736,0.287437 0.72273419,0.28743654 0 0 1 -0.722734,-0.287437 0.72273419,0.28743654 0 0 1 0.722734,-0.287437 0.72273419,0.28743654 0 0 1 0.722734,0.287437 z" /><path
         id="path31-1-7-3"
         style="fill:#1a1a1a;stroke:#000000;stroke-width:0.0592992"
         d="m 65.325234,28.600276 a 0.29003531,0.30152623 0 0 1 -0.290035,0.301527 0.29003531,0.30152623 0 0 1 -0.290036,-0.301527 0.29003531,0.30152623 0 0 1 0.290036,-0.301527 0.29003531,0.30152623 0 0 1 0.290035,0.301527 z m 0.02175,0.08381 a 0.29003531,0.30152623 0 0 1 -0.290036,0.301527 0.29003531,0.30152623 0 0 1 -0.290035,-0.301527 0.29003531,0.30152623 0 0 1 0.290035,-0.301527 0.29003531,0.30152623 0 0 1 0.290036,0.301527 z" /><ellipse
         style="fill:#de8787;stroke:none;stroke-width:0.1"
         id="path37-7"
         cx="63.376076"
         cy="29.387922"
         rx="0.16410854"
         ry="0.3555685" /><path
         style="fill:#ff5555;stroke:none;stroke-width:0.1"
         d="m 62.172613,30.746378 c 0.255281,-0.01823 1.11229,-0.328218 1.11229,-0.328218 l 0.145875,0.145875 0.200578,-0.109405 1.002885,0.309981 c 0,0 -1.094058,0.328218 -1.185228,0.328218 -0.09117,0 -1.203462,-0.328218 -1.203462,-0.328218 z"
         id="path38-0" /><path
         style="opacity:1;fill:#de8787;stroke:none;stroke-width:0.1"
         d="m 65.035241,26.302913 c 0,0 -0.05157,0.773616 -0.515741,0.747827 -0.464169,-0.0258 -2.320846,0.07736 -2.552931,0.154723 -0.232084,0.07736 -0.72204,0.309446 -0.72204,0.309446 0.423225,-0.518872 -1.348336,0.713505 1.469869,-1.495654 0.248294,-0.194635 1.263571,-0.326272 1.263571,-0.154723 z"
         id="path39"
         sodipodi:nodetypes="csscscc" /><path
         style="opacity:1;fill:#de8787;stroke:none;stroke-width:0.1"
         d="m 65.215753,26.457636 c 0.333544,0.282954 0.695322,0.548966 0.696254,1.031487 l 0.128934,0.335233 H 65.49941 l -0.54153,-0.670465 z"
         id="path40"
         sodipodi:nodetypes="cccccc" /><g
         id="g46"
         transform="matrix(0.75504246,0,0,0.75504246,17.631396,7.1522854)"><path
           style="fill:#ffffff;stroke:none;stroke-width:0.037474"
           d="m 60.309157,31.113679 0.01013,0.295095 h 0.313919 l 0.01013,-0.304317 z"
           id="path41" /><path
           style="fill:#ffffff;stroke:none;stroke-width:0.037474"
           d="m 60.668845,31.111022 0.01013,0.295095 h 0.313919 l 0.01013,-0.304317 z"
           id="path41-8" /><path
           style="fill:#ffffff;stroke:none;stroke-width:0.0301304"
           d="m 61.031177,31.108342 0.0068,0.286153 h 0.209283 l 0.0068,-0.295095 z"
           id="path41-8-4" /><path
           style="fill:#ffffff;stroke:none;stroke-width:0.0301304"
           d="m 60.066946,31.119963 0.0068,0.286153 h 0.209283 l 0.0068,-0.295095 z"
           id="path41-8-4-3" /><path
           style="fill:#ffffff;stroke:none;stroke-width:0.0234108"
           d="m 59.871076,31.127229 0.0052,0.223558 h 0.16172 l 0.0052,-0.230543 z"
           id="path41-8-4-3-6" /><path
           style="fill:#ffffff;stroke:none;stroke-width:0.0234108"
           d="m 61.266305,31.099944 0.0052,0.223557 h 0.161721 l 0.0052,-0.230543 z"
           id="path41-8-4-3-6-4" /><path
           style="fill:#4d4d4d;stroke:none;stroke-width:0.037474"
           d="m 59.883846,31.233561 1.093656,0.0092 0.435436,-0.05533"
           id="path42" /><path
           style="fill:#4d4d4d;stroke:none;stroke-width:0.037474"
           d="m 60.15726,31.169009 -0.01013,0.156769 0.08101,-0.01844 v -0.119881 z"
           id="path43" /><path
           style="fill:#4d4d4d;stroke:none;stroke-width:0.037474"
           d="m 60.430674,31.141344 c 0,0 -0.05063,0.165991 -0.01013,0.165991 0.04051,0 0.121517,-0.01844 0.121517,-0.01844 l -0.02025,-0.147547 z"
           id="path44" /><path
           style="fill:#4d4d4d;stroke:none;stroke-width:0.037474"
           d="m 60.815478,31.159788 c 0,0 -0.06076,0.138325 -0.01013,0.138325 0.05063,0 0.09114,-0.0092 0.09114,-0.0092 l -0.02025,-0.119882 z"
           id="path45" /><path
           style="fill:#4d4d4d;stroke:none;stroke-width:0.037474"
           d="m 61.139524,31.159788 v 0.083 l 0.07088,-0.0092 v -0.07377 z"
           id="path46" /></g><path
         style="opacity:1;fill:#f4d7d7;fill-opacity:1;stroke:none;stroke-width:0.1"
         d="m 61.099472,28.469037 c -0.128936,-0.128937 0,-0.438383 -0.232084,-0.464169 -0.232085,-0.0258 -0.335235,0.128934 -0.335235,0.283657 0,0.154723 -0.154723,1.057275 -0.05157,1.160422 0.103148,0.103151 0.386808,0.541531 0.43838,0.412597 0.05158,-0.128937 0.206299,-0.438383 0.206299,-0.438383 z"
         id="path47" /><path
         style="fill:#f4d7d7;fill-opacity:1;stroke:none;stroke-width:0.1"
         d="m 66.127116,28.332325 c 0.128936,-0.128937 0,-0.438383 0.232084,-0.464169 0.232085,-0.0258 0.335235,0.128934 0.335235,0.283657 0,0.154723 0.154723,1.057275 0.05157,1.160422 -0.103148,0.103151 -0.386808,0.541531 -0.43838,0.412597 -0.05158,-0.128937 -0.206299,-0.438383 -0.206299,-0.438383 z"
         id="path47-4" /></g></g></svg>
